<mxfile host="app.diagrams.net" modified="2020-06-17T11:53:32.276Z" agent="5.0 (Windows NT 10.0; Win64; x64) AppleWebKit/537.36 (KHTML, like Gecko) Chrome/83.0.4103.97 Safari/537.36" etag="YkaKAp3fOhI9PwgFxAZZ" version="13.2.4" type="github">
  <diagram name="Page-1" id="822b0af5-4adb-64df-f703-e8dfc1f81529">
    <mxGraphModel dx="1117" dy="624" grid="1" gridSize="10" guides="1" tooltips="1" connect="1" arrows="1" fold="1" page="1" pageScale="1" pageWidth="1100" pageHeight="850" background="#ffffff" math="0" shadow="0">
      <root>
        <mxCell id="0" />
        <mxCell id="1" parent="0" />
        <mxCell id="x4elbkg3u_GMeMl-YBxs-13" value="" style="rounded=1;whiteSpace=wrap;html=1;fillColor=#CCCCCC;strokeColor=none;" vertex="1" parent="1">
          <mxGeometry x="160" y="280" width="520" height="80" as="geometry" />
        </mxCell>
        <mxCell id="x4elbkg3u_GMeMl-YBxs-12" value="" style="rounded=1;whiteSpace=wrap;html=1;fillColor=#CCCCCC;strokeColor=none;" vertex="1" parent="1">
          <mxGeometry x="160" y="180" width="520" height="60" as="geometry" />
        </mxCell>
        <mxCell id="x4elbkg3u_GMeMl-YBxs-3" value="" style="fontColor=#0066CC;verticalAlign=top;verticalLabelPosition=bottom;labelPosition=center;align=center;html=1;outlineConnect=0;fillColor=#CCCCCC;strokeColor=#6881B3;gradientColor=none;gradientDirection=north;strokeWidth=2;shape=mxgraph.networks.storage;" vertex="1" parent="1">
          <mxGeometry x="260" y="610" width="100" height="100" as="geometry" />
        </mxCell>
        <mxCell id="x4elbkg3u_GMeMl-YBxs-4" value="" style="fontColor=#0066CC;verticalAlign=top;verticalLabelPosition=bottom;labelPosition=center;align=center;html=1;outlineConnect=0;fillColor=#CCCCCC;strokeColor=#6881B3;gradientColor=none;gradientDirection=north;strokeWidth=2;shape=mxgraph.networks.storage;" vertex="1" parent="1">
          <mxGeometry x="445" y="610" width="100" height="100" as="geometry" />
        </mxCell>
        <mxCell id="x4elbkg3u_GMeMl-YBxs-5" value="" style="fontColor=#0066CC;verticalAlign=top;verticalLabelPosition=bottom;labelPosition=center;align=center;html=1;outlineConnect=0;fillColor=#CCCCCC;strokeColor=#6881B3;gradientColor=none;gradientDirection=north;strokeWidth=2;shape=mxgraph.networks.router;" vertex="1" parent="1">
          <mxGeometry x="280" y="195" width="100" height="30" as="geometry" />
        </mxCell>
        <mxCell id="x4elbkg3u_GMeMl-YBxs-6" value="" style="fontColor=#0066CC;verticalAlign=top;verticalLabelPosition=bottom;labelPosition=center;align=center;html=1;outlineConnect=0;fillColor=#CCCCCC;strokeColor=#6881B3;gradientColor=none;gradientDirection=north;strokeWidth=2;shape=mxgraph.networks.desktop_pc;" vertex="1" parent="1">
          <mxGeometry x="230" y="445" width="50" height="100" as="geometry" />
        </mxCell>
        <mxCell id="x4elbkg3u_GMeMl-YBxs-8" value="" style="fontColor=#0066CC;verticalAlign=top;verticalLabelPosition=bottom;labelPosition=center;align=center;html=1;outlineConnect=0;fillColor=#CCCCCC;strokeColor=#6881B3;gradientColor=none;gradientDirection=north;strokeWidth=2;shape=mxgraph.networks.desktop_pc;" vertex="1" parent="1">
          <mxGeometry x="350" y="445" width="50" height="100" as="geometry" />
        </mxCell>
        <mxCell id="x4elbkg3u_GMeMl-YBxs-9" value="" style="fontColor=#0066CC;verticalAlign=top;verticalLabelPosition=bottom;labelPosition=center;align=center;html=1;outlineConnect=0;fillColor=#CCCCCC;strokeColor=#6881B3;gradientColor=none;gradientDirection=north;strokeWidth=2;shape=mxgraph.networks.desktop_pc;" vertex="1" parent="1">
          <mxGeometry x="470" y="445" width="50" height="100" as="geometry" />
        </mxCell>
        <mxCell id="x4elbkg3u_GMeMl-YBxs-10" value="" style="fontColor=#0066CC;verticalAlign=top;verticalLabelPosition=bottom;labelPosition=center;align=center;html=1;outlineConnect=0;fillColor=#CCCCCC;strokeColor=#6881B3;gradientColor=none;gradientDirection=north;strokeWidth=2;shape=mxgraph.networks.switch;" vertex="1" parent="1">
          <mxGeometry x="340" y="310" width="100" height="30" as="geometry" />
        </mxCell>
        <mxCell id="x4elbkg3u_GMeMl-YBxs-11" value="" style="fontColor=#0066CC;verticalAlign=top;verticalLabelPosition=bottom;labelPosition=center;align=center;html=1;outlineConnect=0;fillColor=#CCCCCC;strokeColor=#6881B3;gradientColor=none;gradientDirection=north;strokeWidth=2;shape=mxgraph.networks.switch;" vertex="1" parent="1">
          <mxGeometry x="500" y="310" width="100" height="30" as="geometry" />
        </mxCell>
        <mxCell id="x4elbkg3u_GMeMl-YBxs-14" value="bixxi" style="text;html=1;strokeColor=none;fillColor=none;align=center;verticalAlign=middle;whiteSpace=wrap;rounded=0;" vertex="1" parent="1">
          <mxGeometry x="230" y="550" width="40" height="20" as="geometry" />
        </mxCell>
        <mxCell id="x4elbkg3u_GMeMl-YBxs-15" value="bixxi-back" style="text;html=1;strokeColor=none;fillColor=none;align=center;verticalAlign=middle;whiteSpace=wrap;rounded=0;" vertex="1" parent="1">
          <mxGeometry x="462.5" y="550" width="65" height="20" as="geometry" />
        </mxCell>
        <mxCell id="x4elbkg3u_GMeMl-YBxs-16" value="bixxi-reporting" style="text;html=1;strokeColor=none;fillColor=none;align=center;verticalAlign=middle;whiteSpace=wrap;rounded=0;" vertex="1" parent="1">
          <mxGeometry x="336.25" y="550" width="77.5" height="20" as="geometry" />
        </mxCell>
        <mxCell id="x4elbkg3u_GMeMl-YBxs-17" value="gateway-admin" style="text;html=1;strokeColor=none;fillColor=none;align=center;verticalAlign=middle;whiteSpace=wrap;rounded=0;" vertex="1" parent="1">
          <mxGeometry x="340" y="340" width="100" height="20" as="geometry" />
        </mxCell>
        <mxCell id="x4elbkg3u_GMeMl-YBxs-18" value="gateway-supervision" style="text;html=1;strokeColor=none;fillColor=none;align=center;verticalAlign=middle;whiteSpace=wrap;rounded=0;" vertex="1" parent="1">
          <mxGeometry x="490" y="340" width="120" height="20" as="geometry" />
        </mxCell>
        <mxCell id="x4elbkg3u_GMeMl-YBxs-19" value="" style="edgeStyle=elbowEdgeStyle;elbow=vertical;endArrow=classic;html=1;exitX=0.5;exitY=1;exitDx=0;exitDy=0;exitPerimeter=0;" edge="1" parent="1" source="x4elbkg3u_GMeMl-YBxs-6" target="x4elbkg3u_GMeMl-YBxs-3">
          <mxGeometry width="50" height="50" relative="1" as="geometry">
            <mxPoint x="170" y="770" as="sourcePoint" />
            <mxPoint x="220" y="720" as="targetPoint" />
          </mxGeometry>
        </mxCell>
        <mxCell id="x4elbkg3u_GMeMl-YBxs-21" value="Actor" style="shape=umlActor;verticalLabelPosition=bottom;labelBackgroundColor=#ffffff;verticalAlign=top;html=1;outlineConnect=0;fillColor=#CCCCCC;" vertex="1" parent="1">
          <mxGeometry x="380" y="50" width="30" height="60" as="geometry" />
        </mxCell>
        <mxCell id="x4elbkg3u_GMeMl-YBxs-24" value="" style="curved=1;endArrow=classic;html=1;entryX=0.5;entryY=0;entryDx=0;entryDy=0;entryPerimeter=0;exitX=0;exitY=1;exitDx=0;exitDy=0;exitPerimeter=0;" edge="1" parent="1" source="x4elbkg3u_GMeMl-YBxs-21" target="x4elbkg3u_GMeMl-YBxs-6">
          <mxGeometry width="50" height="50" relative="1" as="geometry">
            <mxPoint x="300" y="350" as="sourcePoint" />
            <mxPoint x="350" y="300" as="targetPoint" />
            <Array as="points">
              <mxPoint x="300" y="160" />
              <mxPoint x="330" y="260" />
              <mxPoint x="230" y="320" />
            </Array>
          </mxGeometry>
        </mxCell>
        <mxCell id="x4elbkg3u_GMeMl-YBxs-32" value="(a)" style="edgeLabel;html=1;align=center;verticalAlign=middle;resizable=0;points=[];" vertex="1" connectable="0" parent="x4elbkg3u_GMeMl-YBxs-24">
          <mxGeometry x="0.7906" y="1" relative="1" as="geometry">
            <mxPoint as="offset" />
          </mxGeometry>
        </mxCell>
        <mxCell id="x4elbkg3u_GMeMl-YBxs-25" value="" style="curved=1;endArrow=classic;html=1;entryX=0.5;entryY=0;entryDx=0;entryDy=0;entryPerimeter=0;exitX=0;exitY=1;exitDx=0;exitDy=0;exitPerimeter=0;" edge="1" parent="1" source="x4elbkg3u_GMeMl-YBxs-21" target="x4elbkg3u_GMeMl-YBxs-8">
          <mxGeometry width="50" height="50" relative="1" as="geometry">
            <mxPoint x="390" y="102.63157894736844" as="sourcePoint" />
            <mxPoint x="265" y="455" as="targetPoint" />
            <Array as="points">
              <mxPoint x="330" y="180" />
              <mxPoint x="350" y="250" />
              <mxPoint x="400" y="320" />
            </Array>
          </mxGeometry>
        </mxCell>
        <mxCell id="x4elbkg3u_GMeMl-YBxs-33" value="(b)" style="edgeLabel;html=1;align=center;verticalAlign=middle;resizable=0;points=[];" vertex="1" connectable="0" parent="x4elbkg3u_GMeMl-YBxs-25">
          <mxGeometry x="0.7702" relative="1" as="geometry">
            <mxPoint as="offset" />
          </mxGeometry>
        </mxCell>
        <mxCell id="x4elbkg3u_GMeMl-YBxs-27" value="/admin/*" style="text;html=1;strokeColor=none;fillColor=#ffffff;align=center;verticalAlign=middle;whiteSpace=wrap;rounded=0;" vertex="1" parent="1">
          <mxGeometry x="340" y="250" width="40" height="20" as="geometry" />
        </mxCell>
        <mxCell id="x4elbkg3u_GMeMl-YBxs-28" value="" style="curved=1;endArrow=classic;html=1;entryX=0.5;entryY=0;entryDx=0;entryDy=0;entryPerimeter=0;exitX=0;exitY=1;exitDx=0;exitDy=0;exitPerimeter=0;" edge="1" parent="1" source="x4elbkg3u_GMeMl-YBxs-21" target="x4elbkg3u_GMeMl-YBxs-9">
          <mxGeometry width="50" height="50" relative="1" as="geometry">
            <mxPoint x="410" y="122.63157894736844" as="sourcePoint" />
            <mxPoint x="580" y="410" as="targetPoint" />
            <Array as="points">
              <mxPoint x="340" y="190" />
              <mxPoint x="360" y="240" />
              <mxPoint x="610" y="300" />
            </Array>
          </mxGeometry>
        </mxCell>
        <mxCell id="x4elbkg3u_GMeMl-YBxs-34" value="(c)" style="edgeLabel;html=1;align=center;verticalAlign=middle;resizable=0;points=[];" vertex="1" connectable="0" parent="x4elbkg3u_GMeMl-YBxs-28">
          <mxGeometry x="0.8261" y="-2" relative="1" as="geometry">
            <mxPoint as="offset" />
          </mxGeometry>
        </mxCell>
        <mxCell id="x4elbkg3u_GMeMl-YBxs-31" value="/supervision/*" style="text;html=1;strokeColor=none;fillColor=#ffffff;align=center;verticalAlign=middle;whiteSpace=wrap;rounded=0;" vertex="1" parent="1">
          <mxGeometry x="430" y="250" width="40" height="20" as="geometry" />
        </mxCell>
        <mxCell id="x4elbkg3u_GMeMl-YBxs-35" value="apache" style="text;html=1;strokeColor=none;fillColor=none;align=center;verticalAlign=middle;whiteSpace=wrap;rounded=0;" vertex="1" parent="1">
          <mxGeometry x="414" y="200" width="40" height="20" as="geometry" />
        </mxCell>
      </root>
    </mxGraphModel>
  </diagram>
</mxfile>
